<svg width="150" height="80" viewBox="0 0 150 80" fill="none" xmlns="http://www.w3.org/2000/svg">
<path d="M149.524 47.2186C149.237 49.1256 148.57 50.84 147.102 52.0921C145.156 53.7488 142.944 53.7873 140.637 52.9204C138.234 52.0151 135.984 50.763 133.714 49.5687C130.796 48.0276 127.84 46.5636 124.579 45.8701C124.045 45.7546 123.492 45.6968 122.939 45.639C122.672 45.6197 122.615 45.5234 122.634 45.2537C122.844 43.5971 123.035 41.9597 123.206 40.3031C123.225 40.1105 123.321 39.9756 123.454 39.8601C127.192 36.2193 130.053 31.9044 132.799 27.4932C132.951 27.262 133.085 27.0116 133.237 26.7804C133.237 26.7612 133.237 26.7419 133.218 26.6841C131.845 26.7034 130.453 26.4722 129.061 26.3952C127.554 26.2988 126.048 26.2988 124.598 26.8575C124.122 27.0308 123.664 27.2427 123.187 27.4354C123.035 27.339 123.111 27.1849 123.111 27.0694C123.111 26.241 123.168 25.4127 123.092 24.5844C122.958 23.3323 123.645 22.5811 124.522 21.9261C125.285 21.3482 126.181 21.1749 127.116 21.1363C129.652 21.04 132.169 21.3675 134.687 21.5794C136.727 21.7527 138.749 21.6564 140.77 21.4445C141.094 21.406 141.19 21.4253 141.133 21.7913C140.923 23.4286 140.77 25.066 140.599 26.6841C140.579 26.9153 140.446 27.1079 140.332 27.3005C137.91 31.288 135.125 35.025 132.246 38.7043C131.33 39.8793 130.396 41.0158 129.442 42.2102C130.186 42.345 130.93 42.4413 131.635 42.5954C134.324 43.1926 136.823 44.3484 139.34 45.4271C141.457 46.3325 143.612 47.0645 145.9 47.3149C146.93 47.4305 147.941 47.3727 148.951 47.2378C149.123 47.1993 149.295 47.1415 149.524 47.2186Z" fill="white"/>
<path d="M63.6308 54.8467C63.6499 54.8082 63.688 54.8082 63.7071 54.8274C64.0122 55.0393 65.4234 55.9062 65.5188 55.7521C65.9574 55.1164 68.9896 48.9907 69.1803 43.1733C69.4473 35.6221 68.2077 32.3089 66.4723 28.148C64.7369 23.9872 61.7237 20.1153 58.0622 17.0525C57.2422 16.359 57.2231 16.359 57.8906 15.5307C58.1194 15.2418 58.1576 15.1069 57.7952 14.8758C51.3113 10.792 44.2743 9.23169 36.7415 10.7342C24.9178 13.1036 16.9845 20.0961 12.8652 31.4228C12.7127 31.8466 12.6936 32.4822 12.3885 32.6749C12.0452 32.8868 11.4922 32.54 11.0345 32.4052C10.6531 32.2896 10.5387 32.4052 10.4814 32.7519C9.85212 36.3734 9.81397 39.9756 10.4624 43.597C11.6447 50.1272 14.6007 55.7135 19.3492 60.3559C21.9237 62.8794 24.8796 64.8828 28.1788 66.3468C28.5984 66.5394 28.6365 66.7128 28.4458 67.0788C28.2742 67.4255 28.1216 67.7915 27.9881 68.1768C27.8928 68.4657 27.9881 68.562 28.2551 68.6391C33.4232 70.1416 38.6485 70.3728 43.9119 69.1784C50.415 67.6952 55.9073 64.4782 60.3125 59.4313C61.2088 58.603 63.3447 55.309 63.6308 54.8467ZM72.2125 63.5729C72.0409 63.8233 71.9264 63.8811 71.6785 63.6692C71.4115 63.4188 71.0873 63.2454 70.8203 62.995C70.5343 62.706 70.3817 62.8216 70.1719 63.1106C68.7989 65.0369 67.2542 66.8091 65.5569 68.4272C59.5497 74.1868 52.4746 77.8468 44.2743 79.3301C35.9214 80.8326 27.8546 79.7924 20.0929 76.3636C19.6543 76.1709 19.6353 75.9976 19.8641 75.6316C20.1502 75.1885 20.3599 74.6877 20.6269 74.2446C20.8367 73.8979 20.7413 73.7631 20.4171 73.5704C16.9082 71.5671 13.7806 69.0821 11.0345 66.1349C5.37056 59.9899 1.82346 52.7663 0.507595 44.4831C-0.56035 37.7603 0.0689746 31.1723 2.28115 24.7385C2.43371 24.2954 2.58627 24.2376 2.96768 24.4495C3.36816 24.6614 3.78771 24.7963 4.18819 24.9889C4.53146 25.1623 4.68402 25.1045 4.83659 24.7385C6.20966 21.5986 7.96414 18.6899 10.0619 15.993C10.9773 14.818 11.9499 13.6815 12.9987 12.622C13.2657 12.3523 13.342 12.1597 12.9987 11.9285C12.6745 11.6974 12.7508 11.524 13.0178 11.2736C18.8152 5.84138 25.6043 2.31624 33.3851 0.775189C36.9512 0.0624543 40.5365 -0.14944 44.1599 0.100981C46.3339 0.255085 48.5079 0.544032 50.6438 1.06414C57.3566 2.7015 63.3447 5.76433 68.5319 10.3489C68.837 10.6186 68.837 10.7727 68.5319 11.0039C68.2458 11.235 67.9979 11.5433 67.7119 11.7937C67.4449 12.0056 67.5021 12.1404 67.7119 12.3716C70.4389 15.1647 78.9825 25.3934 78.9825 40.9195C78.9825 53.8065 72.8227 62.6483 72.2125 63.5729Z" fill="#F42740"/>
<path d="M66.491 28.148C64.7556 23.9871 61.7425 20.1153 58.0809 17.0524C57.2609 16.359 57.2419 16.359 57.9093 15.5306C58.1382 15.2417 58.1763 15.1069 57.814 14.8757C51.33 10.7919 44.293 9.23162 36.7602 10.7341C24.9174 13.1035 16.9841 20.096 12.8649 31.4227C12.7124 31.8465 12.6933 32.4822 12.3882 32.6748C12.0449 32.8867 11.4918 32.54 11.0342 32.4051C10.6527 32.2895 10.5383 32.4051 10.4811 32.7519C9.85178 36.3733 9.81364 39.9755 10.462 43.597C11.6444 50.1272 14.6003 55.7135 19.3489 60.3559C21.9234 62.8793 24.8793 64.8827 28.1785 66.3467C28.598 66.5393 28.6362 66.7127 28.4455 67.0787C28.2738 67.4254 28.1213 67.7914 27.9878 68.1767C27.8924 68.4656 27.9878 68.5619 28.2548 68.639C33.4229 70.1415 38.6482 70.3727 43.9116 69.1784C50.4146 67.6951 55.9069 64.4782 60.3122 59.4312C61.2085 58.5644 63.3444 55.2897 63.6114 54.8081C63.6305 54.7696 63.6686 54.7696 63.6877 54.7888C63.9928 55.0007 65.404 55.8676 65.4994 55.7135C65.938 55.0778 68.9702 48.9521 69.1609 43.1347C69.466 35.6221 68.2264 32.3088 66.491 28.148ZM67.2538 42.9613C67.0631 48.3935 64.2407 54.0954 63.8212 54.7118C63.7258 54.8466 62.3909 54.0376 62.1239 53.8449C62.1048 53.8257 62.0667 53.8257 62.0476 53.8642C61.7806 54.3073 59.7973 57.3701 58.9582 58.1791C54.839 62.8793 49.7281 65.8844 43.6446 67.2713C38.7244 68.3886 33.8615 68.1767 29.0176 66.7705C28.7697 66.6934 28.6743 66.6164 28.7697 66.3274C28.8841 65.9614 29.0176 65.634 29.1892 65.3065C29.3609 64.9597 29.3418 64.8056 28.9413 64.613C25.8519 63.2453 23.1057 61.3768 20.7029 59.0074C16.2595 54.7118 13.4942 49.4915 12.4072 43.3851C11.797 40.014 11.8351 36.6237 12.4263 33.2527C12.4835 32.9252 12.5979 32.8096 12.9412 32.9252C13.3607 33.0601 13.8756 33.3875 14.1998 33.1756C14.4859 33.0023 14.4859 32.4051 14.6385 32.0006C18.4716 21.4059 25.89 14.895 36.9509 12.6797C43.9879 11.2735 50.5672 12.7182 56.6125 16.5516C56.9367 16.7635 56.9176 16.8791 56.7079 17.1487C56.0785 17.9193 56.0976 17.9193 56.8604 18.5742C60.2741 21.4252 63.0774 25.0659 64.6984 28.9378C66.3385 32.8096 67.5018 35.9303 67.2538 42.9613Z" fill="white" fill-opacity="0.2"/>
<path d="M68.0172 27.859C68.9898 26.7032 69.9623 25.5475 71.0875 24.5265C72.6322 23.1203 74.3485 22.003 76.3128 21.2903C76.37 21.271 76.4272 21.2325 76.5035 21.194C77.6859 20.8858 78.8682 20.6739 80.0887 20.7317C81.0041 20.7702 81.9004 20.9436 82.7968 21.194C83.0447 21.271 83.1019 21.3674 83.0828 21.5985C82.7395 25.0081 82.4153 28.3984 82.0911 31.808C81.7288 35.6606 81.3474 39.5325 80.9851 43.3851C80.9279 44.0015 80.8706 44.5986 80.7944 45.2151C78.792 45.2151 76.7896 45.2343 74.7872 45.2536C74.5011 45.2536 74.4439 45.1573 74.482 44.8683C74.5965 44.1171 74.6346 43.3658 74.749 42.6338C74.8062 42.2293 74.73 41.9596 74.4248 41.6899C73.1471 40.5727 71.9266 39.3591 70.4772 38.4345C69.7716 37.7795 68.9135 37.3365 68.1507 36.7778C67.9218 36.6045 67.8646 36.7393 67.7883 36.9319C67.6167 37.3365 67.445 37.741 67.2925 38.1455C66.4343 40.3415 65.6906 42.576 65.5952 44.9839C65.5761 45.2921 65.4236 45.2729 65.2138 45.2729C63.917 45.2729 62.6012 45.2536 61.3044 45.2729C60.9992 45.2729 60.923 45.1765 60.942 44.8876C60.9802 43.8089 61.1899 42.7687 61.4379 41.7284C61.9718 39.4939 62.7537 37.3365 63.7072 35.256C63.8789 34.8901 63.7645 34.813 63.4403 34.7552C62.8681 34.6782 62.3151 34.5818 61.743 34.6011C60.942 34.6204 60.923 34.6011 60.942 35.4102C60.9802 37.1053 59.4355 38.8197 57.3186 38.4345C55.7167 38.1455 54.8586 37.1246 54.6869 35.6413C54.4772 33.9847 55.24 32.9637 56.4795 32.1932C57.6619 31.4805 58.9968 31.2879 60.3699 31.2301C61.9337 31.1723 63.4403 31.4034 64.9277 31.885C65.1375 31.9621 65.3664 32.0391 65.5189 31.7502C66.2627 30.3632 67.1781 29.1304 68.0172 27.859ZM69.7144 33.2142C69.314 33.7921 69.314 33.7921 69.9051 34.0425C71.1256 34.8515 72.3652 35.622 73.5094 36.5274C74.0816 36.9705 74.6537 37.4328 75.2639 37.9336C75.7025 33.9462 76.1221 30.055 76.5416 26.1446C76.4844 26.1061 76.4272 26.0676 76.37 26.0483C73.2043 27.493 71.4117 30.3054 69.7144 33.2142Z" fill="white"/>
<path d="M113.329 45.0803C115.007 45.0803 116.59 45.0803 118.115 45.0996C118.268 45.0996 118.325 45.0803 118.325 45.0803C118.325 45.0803 118.344 45.0418 118.363 44.8877C118.421 43.9438 118.516 42.9806 118.611 42.056C118.668 41.5552 118.707 41.0543 118.745 40.5535C119.012 37.6062 119.317 34.6204 119.603 31.7117C119.698 30.6908 119.813 29.6891 119.908 28.6681L120.423 23.5249C120.842 19.4604 121.243 15.3766 121.643 11.3121C121.701 10.6764 122.101 10.6379 122.444 10.6572L122.997 10.6957C124.008 10.7727 125.038 10.869 126.068 10.8883C127.975 10.9268 130.015 10.9268 132.056 10.7149C133.505 10.5608 134.916 10.3682 136.251 9.79032C136.404 9.73253 136.404 9.694 136.423 9.59768C136.442 9.25095 136.48 8.90421 136.537 8.57674C136.557 8.46116 136.576 8.32632 136.576 8.21074L136.766 6.61191C136.976 4.80117 137.186 2.93265 137.415 1.10266C136.709 1.37234 135.908 1.56498 134.936 1.73834C131.789 2.29697 128.68 2.37403 125.515 2.41255C123.589 2.43181 121.624 2.43181 119.717 2.43181C118.859 2.43181 118.02 2.43181 117.162 2.43181H117.143C115.865 2.3355 114.53 2.35476 112.776 2.47034C108.714 2.75929 105.453 3.52981 102.535 4.91675C98.6254 6.76601 96.2797 9.46284 95.3262 13.1614C94.9448 14.6831 94.5634 16.6865 95.1355 18.6706C95.6885 20.5391 96.7946 21.7142 98.4347 22.1572C100.742 22.7736 103.26 21.4445 104.175 19.1137C104.938 17.1873 104.27 14.9336 102.592 13.7585C102.42 13.6429 102.23 13.4696 102.211 13.2191C102.192 12.9495 102.401 12.7761 102.535 12.6413C103.012 12.2175 103.526 11.89 104.099 11.6588C106.254 10.8113 108.637 10.5031 111.384 10.6764C111.498 10.6764 111.689 10.6957 111.803 10.8498C111.917 10.9846 111.917 11.158 111.898 11.2928C111.803 12.1597 111.708 13.0458 111.631 13.8934C111.593 14.2208 111.574 14.529 111.536 14.8565C111.326 16.9947 111.097 19.1907 110.869 21.2904C110.449 25.3356 109.991 29.5157 109.629 33.6573C109.362 36.7394 109.019 39.86 108.676 42.8843C108.599 43.5778 108.523 44.2713 108.447 44.9647C108.447 45.0225 108.447 45.061 108.447 45.0803C108.466 45.0803 108.504 45.0803 108.561 45.0803C110.239 45.0803 111.822 45.0803 113.329 45.0803Z" fill="white"/>
<path d="M70.2676 46.5251C69.028 45.6005 67.6168 45.3693 65.9386 45.8124C64.2223 46.2747 62.7157 47.1993 61.3426 48.1432C60.618 48.644 59.9123 49.1449 59.2067 49.6457C58.5774 50.0888 57.9481 50.5318 57.3188 50.9749C56.5369 51.5335 55.7741 51.861 55.0303 52.0151C51.4641 52.7278 47.8598 52.6508 44.3127 51.7454C42.8062 51.3601 41.3377 50.8208 39.8693 50.0502C41.0898 49.6457 42.3103 49.0486 43.6071 48.201C49.0231 44.6373 52.5702 39.4941 54.1721 32.9061C54.9922 29.535 55.1447 26.53 54.6489 23.7369C54.1149 20.7318 52.4749 18.767 49.7669 17.8809C48.6417 17.5149 47.3831 17.3608 45.9146 17.4186C42.5773 17.5534 39.24 18.4395 35.6547 20.1154C31.0778 22.2729 26.9205 25.5476 22.9347 30.1707C21.2756 32.097 19.9407 34.0619 18.8727 36.1616C18.3388 37.2018 18.3388 38.319 18.8918 39.5519C19.6546 41.3048 21.3519 42.8651 23.1254 43.4237C23.278 43.4815 23.4687 43.5201 23.6594 43.4237C23.8311 43.3274 23.9073 43.1348 23.9455 42.9614C24.2125 41.9212 24.5367 40.9966 24.899 40.1298C25.6809 38.319 26.6916 36.5661 27.9884 34.7746C27.9884 34.8517 27.9884 34.948 28.0075 35.025C28.0075 35.1213 28.0075 35.2369 28.0266 35.3332C28.3507 38.1649 28.5605 40.0334 28.6368 42.6147C28.694 44.6373 28.7512 46.082 29.1136 48.201C29.1708 48.5285 29.228 48.8174 29.1708 48.8945C29.1326 48.9522 28.8275 48.9908 28.5033 49.01H28.4461C26.5963 49.2027 24.8609 48.7981 23.1445 47.7965C23.0301 47.7194 22.9347 47.6616 22.8394 47.6231C22.6678 47.5075 22.5152 47.4305 22.2673 47.2956C21.9049 47.103 21.5426 47.6616 21.3138 48.0469L21.2756 48.1047C21.1803 48.2588 21.1421 48.4514 21.1993 48.644C21.2375 48.7789 21.3328 48.8752 21.4472 48.933C21.5998 48.9908 21.7333 49.1064 21.8477 49.2219C21.9431 49.3182 22.0575 49.4146 22.191 49.4916C24.1553 50.6859 26.3484 51.3987 28.7512 51.6298C29.1708 51.6683 29.4187 51.6876 29.514 51.7839C29.6094 51.8802 29.6475 52.1114 29.7048 52.5159L29.8192 53.1901C30.0862 54.8468 30.3722 56.5419 30.8871 58.1793C31.4592 59.9515 32.8132 60.9339 34.644 60.9339C34.8919 60.9339 35.1589 60.9146 35.445 60.8761C35.6357 60.8568 35.8645 60.7991 35.9599 60.6064C36.0552 60.4331 35.998 60.2212 35.9217 60.0093C35.8264 59.7588 35.7692 59.4699 35.7119 59.181C35.6357 58.7764 35.5594 58.3719 35.464 57.9866C35.197 56.6382 34.911 55.232 34.6631 53.8451C34.5486 53.2094 34.4152 52.4967 34.5105 51.7647L35.1017 52.0343C38.9921 53.8643 43.035 55.7521 47.2877 56.985C52.6846 58.5645 57.5667 58.7379 62.1627 57.5243C65.0614 56.7538 67.1591 55.8484 68.9517 54.6156C70.2485 53.7102 71.1448 52.67 71.6407 51.4565C72.4226 49.5687 71.9267 47.7579 70.2676 46.5251ZM34.1482 47.1223C33.9956 43.5586 34.1482 41.3819 34.4152 37.8374C34.5486 35.9111 33.5951 34.4471 31.5927 33.8885C30.4676 33.5803 29.9145 33.7151 28.6559 33.8885C29.9908 32.0778 30.8299 30.9605 32.4509 29.458C35.1398 26.9345 37.7143 25.0853 41.2805 24.0258C42.9587 23.525 44.656 23.2168 46.4105 23.5442C48.184 23.891 49.0422 25.066 49.271 26.9923C49.9957 33.1758 48.4891 37.1632 45.6095 41.2085C42.9396 44.7144 39.3353 46.7948 35.1398 47.8735C34.2054 48.1239 34.1863 48.0661 34.1482 47.1223Z" fill="white"/>
<path d="M82.4146 27.8975C82.3574 28.1865 82.6816 28.1672 82.7579 28.0324C85.2943 23.7752 87.926 22.1186 92.6936 21.3673C95.3825 20.905 98.3766 20.6931 101.066 21.0591C102.782 21.2903 104.174 21.8489 105.452 23.1203C106.596 24.2568 107.054 25.6823 107.111 27.2619C107.168 28.9377 106.787 30.4981 106.1 32.0391C104.899 34.7552 103.125 36.3155 100.226 36.6815C99.2348 36.8163 97.9189 36.7971 96.9272 36.7778C96.5268 36.7586 96.4314 36.9319 96.3933 37.2979C96.1454 39.8407 95.8593 42.3641 95.6114 44.9068C95.5732 45.1958 95.4588 45.2343 95.2109 45.2343C93.3611 45.2343 91.5112 45.2151 89.6614 45.2343C89.3181 45.2343 89.2419 45.1187 89.28 44.7913C89.9284 38.5308 90.5768 32.2703 91.2252 26.029C91.2442 25.8556 91.2252 25.6823 91.2252 25.4704C87.4302 26.029 82.4146 29.7661 81.3467 39.9948L82.4146 27.8975ZM101.275 28.3406C101.275 26.1831 99.8069 25.0466 98.0333 25.0081C97.7091 25.0081 97.5756 25.0659 97.5375 25.4319C97.3277 27.7242 97.0798 30.0165 96.8319 32.3088C96.7938 32.6748 96.8891 32.7711 97.1942 32.7133C97.671 32.6363 98.4529 32.4821 98.8915 32.251C100.627 31.3456 101.218 29.8046 101.275 28.3406Z" fill="white"/>
<path d="M85.8281 63.8552V52.9947C86.8318 52.8356 87.7026 52.756 88.4406 52.756C89.8084 52.756 90.753 53.0146 91.2745 53.5318C91.796 54.0489 92.0568 54.9042 92.0568 56.0977C92.0568 57.7685 91.5943 58.8824 90.6694 59.4394L92.5291 63.6911C92.6374 63.9397 92.6915 64.1038 92.6915 64.1834C92.6915 64.253 92.6816 64.2977 92.662 64.3176C92.6226 64.4072 92.4553 64.4519 92.1601 64.4519C91.2056 64.4519 90.6448 64.2629 90.4775 63.885L88.7949 59.9466C88.5489 59.9665 88.1799 59.9764 87.6879 59.9764V63.8253C87.6879 64.1038 87.6584 64.2779 87.5993 64.3475C87.5501 64.4171 87.3828 64.4519 87.0975 64.4519C86.2512 64.4519 85.8281 64.253 85.8281 63.8552ZM87.924 57.9326C88.7112 57.9326 89.2426 57.8232 89.5181 57.6044C89.7936 57.3757 89.9314 56.8685 89.9314 56.0828C89.9314 55.6054 89.8527 55.2275 89.6952 54.949C89.5476 54.6705 89.3803 54.5313 89.1934 54.5313C88.4947 54.5313 88.0667 54.5462 87.9093 54.576C87.7617 54.6059 87.6879 54.7053 87.6879 54.8744V57.7089C87.6879 57.8382 87.7125 57.9078 87.7617 57.9177C87.8109 57.9277 87.865 57.9326 87.924 57.9326Z" fill="white"/>
<path d="M98.156 52.7411C98.8349 52.7411 99.2039 52.8952 99.263 53.2036L100.267 57.7835L101.285 63.885C101.305 63.9845 101.315 64.0789 101.315 64.1685C101.315 64.248 101.29 64.3127 101.241 64.3624C101.192 64.4221 101.024 64.4519 100.739 64.4519C99.8632 64.4519 99.3958 64.2629 99.3368 63.885L98.8202 60.8119H96.7538L96.2962 63.8999C96.2667 64.1088 96.2274 64.248 96.1782 64.3176C96.1388 64.3873 96.0798 64.427 96.001 64.437C95.9223 64.4469 95.7944 64.4519 95.6173 64.4519H95.204C94.8596 64.4519 94.6431 64.432 94.5546 64.3922C94.3381 64.3127 94.2151 64.2232 94.1856 64.1237C94.1757 64.074 94.1708 64.0292 94.1708 63.9894C94.1708 63.9497 94.2741 63.2933 94.4808 62.0202C94.6874 60.7472 94.9383 59.2305 95.2335 57.4702C95.5386 55.7098 95.7354 54.5561 95.8239 54.0091C95.9223 53.4621 95.9764 53.1538 95.9863 53.0842C96.0256 52.8555 96.7489 52.7411 98.156 52.7411ZM97.7132 54.6954L97.0342 59.0067H98.4955L97.7132 54.6954Z" fill="white"/>
<path d="M106.349 52.756C107.421 52.756 108.233 52.9102 108.784 53.2185C109.335 53.5268 109.734 54.0887 109.98 54.9042C110.226 55.7098 110.349 56.9082 110.349 58.4995C110.349 60.7074 110.063 62.254 109.493 63.1391C108.922 64.0143 107.874 64.4519 106.349 64.4519C105.975 64.4519 104.897 64.3723 103.116 64.2132V53.0096C104.612 52.8405 105.689 52.756 106.349 52.756ZM107.131 54.5313C106.275 54.5313 105.739 54.5512 105.522 54.591C105.306 54.6208 105.197 54.7153 105.197 54.8744V62.3634C105.197 62.4728 105.261 62.5374 105.389 62.5573C105.527 62.5772 105.798 62.5871 106.201 62.5871C106.614 62.5871 106.905 62.5672 107.072 62.5275C107.239 62.4777 107.392 62.3982 107.529 62.2888C107.677 62.1694 107.775 61.9456 107.825 61.6174C107.923 60.9809 107.972 59.9963 107.972 58.6636C107.972 55.9087 107.692 54.5313 107.131 54.5313Z" fill="white"/>
<path d="M112.493 62.4081H113.024V54.7849H112.582C112.385 54.7749 112.252 54.7103 112.183 54.591C112.114 54.4517 112.08 54.1981 112.08 53.8301C112.08 53.2732 112.242 52.9947 112.567 52.9947H115.179C115.612 52.9947 115.829 53.1489 115.829 53.4572C115.829 54.3423 115.657 54.7849 115.312 54.7849H114.943L115.091 57.7685L115.106 62.4081H115.548C115.893 62.4181 116.065 62.5772 116.065 62.8855C116.045 63.7706 115.804 64.2132 115.342 64.2132H112.552C112.375 64.2033 112.252 64.1386 112.183 64.0193C112.114 63.88 112.08 63.6215 112.08 63.2435C112.08 62.6866 112.218 62.4081 112.493 62.4081Z" fill="white"/>
<path d="M117.706 58.6785C117.706 57.0972 117.829 55.8839 118.075 55.0385C118.321 54.1931 118.71 53.6014 119.241 53.2632C119.782 52.9251 120.56 52.756 121.573 52.756C122.587 52.756 123.359 52.9251 123.891 53.2632C124.432 53.6014 124.82 54.1931 125.057 55.0385C125.303 55.8739 125.426 57.0873 125.426 58.6785C125.426 60.8566 125.15 62.3634 124.599 63.1988C124.048 64.0342 123.039 64.4519 121.573 64.4519C120.107 64.4519 119.094 64.0342 118.533 63.1988C117.982 62.3634 117.706 60.8566 117.706 58.6785ZM120.171 55.9038C120.112 56.2717 120.078 56.6497 120.068 57.0375C120.058 57.4155 120.053 58.0619 120.053 58.9769C120.053 59.8919 120.082 60.6577 120.142 61.2743C120.201 61.8909 120.279 62.2987 120.378 62.4976C120.476 62.6866 120.609 62.7811 120.776 62.7811C121.642 62.7811 122.208 62.6916 122.474 62.5125C122.572 62.4429 122.665 62.3285 122.754 62.1694C122.852 62.0103 122.921 61.8462 122.961 61.6771C123 61.508 123.034 61.2594 123.064 60.9312C123.103 60.5035 123.123 59.7377 123.123 58.6338C123.123 57.5199 123.094 56.6447 123.034 56.0082C122.985 55.3617 122.907 54.9241 122.798 54.6954C122.7 54.4567 122.567 54.3373 122.4 54.3373C122.006 54.3373 121.686 54.3572 121.44 54.397C121.204 54.4268 120.993 54.5114 120.806 54.6506C120.619 54.7799 120.481 54.9291 120.392 55.0982C120.304 55.2573 120.23 55.5258 120.171 55.9038Z" fill="white"/>
</svg>
